# xmcd CD database file
#
# Track frame offsets:
#	150
#	14332
#	31521
#	43720
#	58988
#	72050
#	87423
#	98590
#	111782
#	128931
#	141352
#	156190
#
# Disc length: 2301 seconds
#
# Revision: 0
# Processed by: cddbd v1.5.2PL0 Copyright (c) Steve Scherf et al.
# Submitted via: CDex 1.70beta2
#
DISCID=9d08fb0c
DTITLE=Mahogany Ridge - Cdn. - ON - Coming Home
DYEAR=2010
DGENRE=Country
TTITLE0=One More Last Chance
TTITLE1=A Prayer For Amy
TTITLE2=Coming Home
TTITLE3=Bittersweet
TTITLE4=Statue of A Fool
TTITLE5=North Dakota Boy
TTITLE6=Tennessee Waltz
TTITLE7=Under Your Spell
TTITLE8=All For You
TTITLE9=Take Your Money With You
TTITLE10=Look At Us
TTITLE11=Rock This Town
EXTD=YEAR: 2010
EXTT0=
EXTT1=
EXTT2=
EXTT3=
EXTT4=
EXTT5=
EXTT6=
EXTT7=
EXTT8=
EXTT9=
EXTT10=
EXTT11=
PLAYORDER=
